<svg xmlns="http://www.w3.org/2000/svg" width="35.308" height="37.4" viewBox="0 0 35.308 37.4"><defs><style>.a{fill:#fff;}</style></defs><g transform="translate(-14.318 0)"><g transform="translate(14.319 0)"><g transform="translate(0 0)"><path class="a" d="M126,395.039a4.272,4.272,0,1,0,4.272,4.272A4.276,4.276,0,0,0,126,395.039Zm0,5.929a1.656,1.656,0,1,1,1.656-1.656A1.658,1.658,0,0,1,126,400.968Z" transform="translate(-113.887 -366.183)"/><path class="a" d="M338.443,395.039a4.272,4.272,0,1,0,4.272,4.272A4.277,4.277,0,0,0,338.443,395.039Zm0,5.928a1.656,1.656,0,1,1,1.656-1.656A1.659,1.659,0,0,1,338.443,400.967Z" transform="translate(-310.807 -366.183)"/><path class="a" d="M24.562,27.549H44.919a1.308,1.308,0,1,0,0-2.615H25.674L21.93,1.969A1.308,1.308,0,0,0,20.864.891L15.851.02A1.308,1.308,0,1,0,15.4,2.6l4.1.712,3.773,23.143A1.308,1.308,0,0,0,24.562,27.549Z" transform="translate(-14.319 0)"/></g></g><g transform="translate(21.729 7.934)"><path class="a" d="M143.411,109.148a1.307,1.307,0,0,0-1.057-.537h-26.59v2.615h24.8l-2.69,8.369H117.639v2.615h21.185a1.309,1.309,0,0,0,1.245-.908l3.531-10.985A1.308,1.308,0,0,0,143.411,109.148Z" transform="translate(-115.765 -108.611)"/></g></g></svg>