<svg xmlns="http://www.w3.org/2000/svg" width="34.852" height="37.4" viewBox="0 0 34.852 37.4"><defs><style>.a{fill:#fff;}</style></defs><g transform="translate(-17.44)"><g transform="translate(17.44 21.066)"><path class="a" d="M34.866,288.389c-11.237,0-17.426,5.316-17.426,14.969a1.365,1.365,0,0,0,1.365,1.365H50.927a1.365,1.365,0,0,0,1.365-1.365C52.292,293.706,46.1,288.389,34.866,288.389Zm-14.646,13.6c.537-7.217,5.458-10.874,14.646-10.874s14.11,3.657,14.647,10.874Z" transform="translate(-17.44 -288.389)"/></g><g transform="translate(25.812)"><path class="a" d="M141.1,0a8.946,8.946,0,0,0-9.054,9.236c0,5.419,4.062,9.828,9.054,9.828s9.054-4.408,9.054-9.827A8.946,8.946,0,0,0,141.1,0Zm0,16.334c-3.487,0-6.324-3.184-6.324-7.1A6.207,6.207,0,0,1,141.1,2.73a6.276,6.276,0,0,1,6.324,6.506C147.428,13.15,144.591,16.334,141.1,16.334Z" transform="translate(-132.049)"/></g></g></svg>