<svg xmlns="http://www.w3.org/2000/svg" width="40.18" height="37" viewBox="0 0 40.18 37"><defs><style>.a{fill:#fff;}</style></defs><g transform="translate(0 -20.259)"><g transform="translate(0 20.259)"><path class="a" d="M36.625,23.862a12.45,12.45,0,0,0-16.5-.908,12.447,12.447,0,0,0-7.748-2.7A12.38,12.38,0,0,0,3.6,41.371L19.068,56.836a1.445,1.445,0,0,0,2.042,0l15.477-15.43a12.555,12.555,0,0,0,.038-17.545ZM34.534,39.373l-14.443,14.4L5.647,39.327A9.467,9.467,0,0,1,12.381,23.15a9.609,9.609,0,0,1,6.746,2.768,1.445,1.445,0,0,0,2.032-.012,9.547,9.547,0,0,1,13.409-.012,9.664,9.664,0,0,1-.035,13.478Z" transform="translate(0 -20.259)"/></g></g></svg>